<svg width="53" height="15" viewBox="0 0 53 15" fill="none" xmlns="http://www.w3.org/2000/svg">
<path d="M1.24798 11.728V10.416H4.68798C5.33865 10.416 5.84531 10.24 6.20798 9.88803C6.58131 9.53603 6.76798 9.05603 6.76798 8.44803C6.76798 7.80803 6.57065 7.29603 6.17598 6.91203C5.79198 6.52803 5.26398 6.33603 4.59198 6.33603H1.24798V5.05603H4.43198C5.08265 5.05603 5.58398 4.90136 5.93598 4.59203C6.29865 4.27203 6.47998 3.81869 6.47998 3.23203C6.47998 2.67736 6.30931 2.25603 5.96798 1.96803C5.63731 1.66936 5.14665 1.52003 4.49598 1.52003H1.24798V0.208026H4.75198C5.79731 0.208026 6.62931 0.464025 7.24798 0.976025C7.86665 1.47736 8.17598 2.16536 8.17598 3.04003C8.17598 3.59469 8.04798 4.08536 7.79198 4.51203C7.54665 4.92803 7.20531 5.25336 6.76798 5.48803C6.33065 5.71203 5.83465 5.82403 5.27998 5.82403L5.35998 5.48803C5.95731 5.48803 6.49065 5.62669 6.95998 5.90403C7.42931 6.17069 7.80265 6.53869 8.07998 7.00803C8.35731 7.47736 8.49598 8.02136 8.49598 8.64003C8.49598 9.24803 8.34665 9.78669 8.04798 10.256C7.75998 10.7254 7.34931 11.088 6.81598 11.344C6.28265 11.6 5.66398 11.728 4.95998 11.728H1.24798ZM-2.08397e-05 11.728V0.208026H1.69598V11.728H-2.08397e-05ZM13.7704 11.888C12.9384 11.888 12.2077 11.7067 11.5784 11.344C10.949 10.9707 10.4584 10.464 10.1064 9.82403C9.75436 9.17336 9.57836 8.43736 9.57836 7.61603C9.57836 6.78403 9.75436 6.05336 10.1064 5.42403C10.469 4.79469 10.9597 4.30403 11.5784 3.95203C12.2077 3.58936 12.9384 3.40803 13.7704 3.40803C14.613 3.40803 15.349 3.58936 15.9784 3.95203C16.6077 4.30403 17.093 4.79469 17.4344 5.42403C17.7864 6.05336 17.9624 6.78403 17.9624 7.61603C17.9624 8.43736 17.7864 9.17336 17.4344 9.82403C17.093 10.464 16.6077 10.9707 15.9784 11.344C15.349 11.7067 14.613 11.888 13.7704 11.888ZM13.7704 10.528C14.2717 10.528 14.7037 10.4054 15.0664 10.16C15.4397 9.91469 15.733 9.57336 15.9464 9.13603C16.1597 8.69869 16.2664 8.18669 16.2664 7.60003C16.2664 6.72536 16.0317 6.03736 15.5624 5.53603C15.1037 5.02403 14.5064 4.76803 13.7704 4.76803C13.045 4.76803 12.4477 5.02403 11.9784 5.53603C11.5197 6.04803 11.2904 6.73603 11.2904 7.60003C11.2904 8.18669 11.3917 8.69869 11.5944 9.13603C11.8077 9.57336 12.101 9.91469 12.4744 10.16C12.8584 10.4054 13.2904 10.528 13.7704 10.528ZM23.2235 11.888C22.3915 11.888 21.6608 11.7067 21.0315 11.344C20.4021 10.9707 19.9115 10.464 19.5595 9.82403C19.2075 9.17336 19.0315 8.43736 19.0315 7.61603C19.0315 6.78403 19.2075 6.05336 19.5595 5.42403C19.9221 4.79469 20.4128 4.30403 21.0315 3.95203C21.6608 3.58936 22.3915 3.40803 23.2235 3.40803C24.0661 3.40803 24.8021 3.58936 25.4315 3.95203C26.0608 4.30403 26.5461 4.79469 26.8875 5.42403C27.2395 6.05336 27.4155 6.78403 27.4155 7.61603C27.4155 8.43736 27.2395 9.17336 26.8875 9.82403C26.5461 10.464 26.0608 10.9707 25.4315 11.344C24.8021 11.7067 24.0661 11.888 23.2235 11.888ZM23.2235 10.528C23.7248 10.528 24.1568 10.4054 24.5195 10.16C24.8928 9.91469 25.1861 9.57336 25.3995 9.13603C25.6128 8.69869 25.7195 8.18669 25.7195 7.60003C25.7195 6.72536 25.4848 6.03736 25.0155 5.53603C24.5568 5.02403 23.9595 4.76803 23.2235 4.76803C22.4981 4.76803 21.9008 5.02403 21.4315 5.53603C20.9728 6.04803 20.7435 6.73603 20.7435 7.60003C20.7435 8.18669 20.8448 8.69869 21.0475 9.13603C21.2608 9.57336 21.5541 9.91469 21.9275 10.16C22.3115 10.4054 22.7435 10.528 23.2235 10.528ZM29.1246 11.728V2.53048e-05H30.7886V11.728H29.1246ZM34.4206 11.728L30.4046 7.48803L34.2926 3.56803H36.3886L31.9726 7.85603L32.0526 7.10403L36.5486 11.728H34.4206ZM40.5061 11.888C39.4394 11.888 38.5914 11.6534 37.9621 11.184C37.3328 10.7147 36.9754 10.0534 36.8901 9.20003H38.4261C38.5008 9.66936 38.7141 10.032 39.0661 10.288C39.4288 10.5334 39.9194 10.656 40.5381 10.656C41.0821 10.656 41.4981 10.56 41.7861 10.368C42.0741 10.176 42.2181 9.90403 42.2181 9.55203C42.2181 9.29603 42.1328 9.08269 41.9621 8.91203C41.8021 8.73069 41.4821 8.58136 41.0021 8.46403L39.6901 8.16003C38.8688 7.95736 38.2554 7.65869 37.8501 7.26403C37.4554 6.85869 37.2581 6.36269 37.2581 5.77603C37.2581 5.04003 37.5301 4.46403 38.0741 4.04803C38.6288 3.62136 39.3861 3.40803 40.3461 3.40803C41.2954 3.40803 42.0581 3.62136 42.6341 4.04803C43.2208 4.47469 43.5514 5.07203 43.6261 5.84003H42.0901C42.0261 5.45603 41.8394 5.16269 41.5301 4.96003C41.2314 4.74669 40.8208 4.64003 40.2981 4.64003C39.8074 4.64003 39.4288 4.73069 39.1621 4.91203C38.9061 5.08269 38.7781 5.32269 38.7781 5.63203C38.7781 5.88803 38.8741 6.10136 39.0661 6.27203C39.2688 6.44269 39.5994 6.58669 40.0581 6.70403L41.4021 7.04003C42.1808 7.23203 42.7674 7.54669 43.1621 7.98403C43.5568 8.41069 43.7541 8.92803 43.7541 9.53603C43.7541 10.272 43.4661 10.848 42.8901 11.264C42.3248 11.68 41.5301 11.888 40.5061 11.888ZM45.842 15.008L47.81 10.512L48.146 9.98403L50.626 3.56803H52.354L47.554 15.008H45.842ZM47.73 11.728L44.242 3.56803H46.05L49.01 10.912L47.73 11.728Z" fill="#1D1B19"/>
</svg>
