<svg width="33" height="33" viewBox="0 0 33 33" fill="none" xmlns="http://www.w3.org/2000/svg">
<circle cx="16.5" cy="16.5" r="16.5" fill="#733216"/>
<path d="M22.0908 20.4227C21.7592 19.6372 21.278 18.9238 20.674 18.3221C20.0718 17.7186 19.3585 17.2375 18.5734 16.9053C18.5664 16.9018 18.5594 16.9 18.5523 16.8965C19.6474 16.1055 20.3594 14.817 20.3594 13.3633C20.3594 10.9551 18.4082 9.00391 16 9.00391C13.5918 9.00391 11.6406 10.9551 11.6406 13.3633C11.6406 14.817 12.3525 16.1055 13.4476 16.8982C13.4406 16.9018 13.4336 16.9035 13.4265 16.907C12.639 17.2393 11.9324 17.7156 11.326 18.3238C10.7225 18.926 10.2414 19.6393 9.90916 20.4244C9.58278 21.193 9.40675 22.0171 9.39061 22.852C9.39014 22.8707 9.39343 22.8894 9.40029 22.9068C9.40714 22.9243 9.41743 22.9402 9.43053 22.9537C9.44364 22.9671 9.4593 22.9778 9.47659 22.9851C9.49389 22.9923 9.51247 22.9961 9.53123 22.9961H10.5859C10.6633 22.9961 10.7248 22.9346 10.7265 22.859C10.7617 21.502 11.3066 20.2311 12.2699 19.2678C13.2666 18.2711 14.5902 17.7227 16 17.7227C17.4097 17.7227 18.7334 18.2711 19.7301 19.2678C20.6933 20.2311 21.2383 21.502 21.2734 22.859C21.2752 22.9363 21.3367 22.9961 21.414 22.9961H22.4687C22.4875 22.9961 22.5061 22.9923 22.5234 22.9851C22.5407 22.9778 22.5563 22.9671 22.5694 22.9537C22.5825 22.9402 22.5928 22.9243 22.5997 22.9068C22.6065 22.8894 22.6098 22.8707 22.6094 22.852C22.5918 22.0117 22.4178 21.1943 22.0908 20.4227ZM16 16.3867C15.1931 16.3867 14.4338 16.0721 13.8625 15.5008C13.2912 14.9295 12.9765 14.1701 12.9765 13.3633C12.9765 12.5564 13.2912 11.7971 13.8625 11.2258C14.4338 10.6545 15.1931 10.3398 16 10.3398C16.8068 10.3398 17.5662 10.6545 18.1375 11.2258C18.7088 11.7971 19.0234 12.5564 19.0234 13.3633C19.0234 14.1701 18.7088 14.9295 18.1375 15.5008C17.5662 16.0721 16.8068 16.3867 16 16.3867Z" fill="#FFFEFD"/>
</svg>
